<svg class="img-fluid" id="outputsvg" xmlns="http://www.w3.org/2000/svg" style="transform: matrix(0.856831, 0, 0, 0.856831, -2.97649, -22.7283); transform-origin: 50% 50%; cursor: move; max-height: none; transition: transform 200ms ease-in-out 0s;" width="1483" height="1049" viewBox="0 0 14830 10490"><g id="l4WcEDXxw9PfFI8ry5gCxbY" fill="rgb(31,29,29)" style="transform: none;"><g style="transform: none;"><path id="p13B6RbG1v" d="M9669 8685 c-12 -13 -21 -14 -43 -5 -56 21 -130 -24 -142 -86 -12 -62 48 -134 111 -134 9 0 32 7 50 16 61 29 82 118 38 166 -15 17 -15 19 2 38 21 23 7 27 -16 5z m-34 -26 c4 -5 0 -18 -9 -28 -26 -29 -18 -37 10 -10 25 24 26 24 40 5 41 -57 -9 -146 -81 -146 -27 0 -44 8 -66 29 -21 22 -29 39 -29 66 0 50 44 95 94 95 19 0 38 -5 41 -11z"></path><path id="pwxkuH1Iu" d="M7356 8669 c-15 -12 -25 -24 -22 -27 3 -3 15 3 26 13 13 12 27 15 45 11 41 -10 33 -51 -20 -100 -35 -33 -43 -46 -38 -65 9 -35 46 -48 78 -27 15 10 24 20 21 24 -4 3 -12 0 -18 -6 -20 -20 -56 -14 -64 10 -5 18 2 29 40 61 53 45 62 85 24 111 -29 21 -40 20 -72 -5z"></path><path id="pEtUI9jH5" d="M7875 8678 c-32 -18 -35 -28 -33 -123 l1 -90 6 86 c6 92 19 119 56 119 41 0 55 -29 55 -118 0 -48 4 -82 10 -82 13 0 13 129 0 167 -6 17 -22 35 -36 42 -30 13 -34 13 -59 -1z"></path><path id="psMIoN5CT" d="M8224 8676 c-43 -19 -64 -53 -64 -104 0 -70 69 -125 136 -108 15 4 39 20 55 36 51 51 31 148 -36 176 -42 17 -51 17 -91 0z m95 -21 c34 -17 41 -33 41 -86 0 -53 -35 -89 -85 -89 -50 0 -74 15 -91 57 -38 89 47 164 135 118z"></path><path id="pEVPWzn72" d="M9354 8680 c-24 -9 -39 -28 -30 -37 3 -3 12 2 21 11 19 19 46 21 63 4 21 -21 13 -44 -33 -87 -51 -48 -56 -73 -20 -97 21 -14 31 -15 50 -6 14 7 25 16 25 22 0 13 -6 13 -29 -2 -10 -6 -26 -8 -35 -5 -28 11 -18 45 24 78 60 48 65 94 14 117 -14 7 -26 12 -27 11 -1 0 -12 -4 -23 -9z"></path><path id="p5SAnu3oZ" d="M9786 8669 c-25 -19 -26 -25 -26 -110 0 -53 4 -89 10 -89 6 0 10 36 10 88 0 93 8 112 46 112 43 0 54 -24 54 -116 0 -54 4 -84 11 -84 7 0 10 29 7 91 -3 81 -6 93 -27 110 -30 24 -52 24 -85 -2z"></path><path id="p6OJd665J" d="M10032 8674 c-12 -8 -22 -20 -22 -26 0 -6 8 -4 18 5 32 29 82 16 82 -21 0 -8 -21 -34 -46 -59 -51 -51 -55 -79 -12 -102 24 -14 28 -14 47 3 25 23 21 32 -7 15 -24 -15 -52 -5 -52 19 0 10 20 37 45 61 52 49 56 71 19 100 -32 25 -43 26 -72 5z"></path><path id="p19a5zbFtx" d="M7050 8575 c0 -63 4 -105 10 -105 6 0 10 42 10 105 0 63 -4 105 -10 105 -6 0 -10 -42 -10 -105z"></path><path id="p16dCaXdN7" d="M7132 8583 c-1 -57 0 -103 2 -103 2 0 32 33 67 73 34 39 66 73 70 75 4 2 10 -34 12 -80 l3 -83 2 103 c1 56 0 102 -2 102 -1 0 -31 -33 -66 -72 -34 -40 -66 -74 -71 -76 -4 -2 -10 34 -12 80 l-3 83 -2 -102z"></path><path id="proFBpANd" d="M7530 8581 l0 -100 -27 -4 c-16 -2 1 -4 37 -4 36 0 53 2 38 4 l-28 4 0 100 c0 59 -4 99 -10 99 -6 0 -10 -40 -10 -99z"></path><path id="p9KY6S57J" d="M7630 8575 c0 -63 4 -105 10 -105 6 0 10 42 10 105 0 63 -4 105 -10 105 -6 0 -10 -42 -10 -105z"></path><path id="p147H7DBME" d="M7730 8581 l0 -100 -27 -4 c-16 -2 1 -4 37 -4 36 0 53 2 38 4 l-28 4 0 100 c0 59 -4 99 -10 99 -6 0 -10 -40 -10 -99z"></path><path id="pZCRH4QP2" d="M8060 8581 l0 -100 -27 -4 c-16 -2 1 -4 37 -4 36 0 53 2 38 4 l-28 4 0 100 c0 59 -4 99 -10 99 -6 0 -10 -40 -10 -99z"></path><path id="puTxo1Qqd" d="M8520 8575 l0 -105 55 0 c46 0 60 5 87 28 27 25 31 36 31 77 0 41 -4 52 -31 77 -27 23 -41 28 -87 28 l-55 0 0 -105z m138 59 c13 -15 22 -38 22 -59 0 -52 -34 -84 -97 -92 l-53 -6 0 98 0 98 53 -7 c38 -5 58 -13 75 -32z"></path><path id="pCNCpDM3E" d="M8740 8575 l0 -105 68 2 67 2 -57 3 -58 4 0 39 0 39 53 4 52 3 -52 2 -53 2 0 45 0 45 50 0 c28 0 50 5 50 10 0 6 -27 10 -60 10 l-60 0 0 -105z"></path><path id="p6jiuXYPB" d="M8990 8575 l0 -105 54 0 c53 0 67 7 79 43 10 28 -35 67 -78 67 l-35 0 0 50 c0 28 -4 50 -10 50 -6 0 -10 -42 -10 -105z m110 -34 c13 -25 13 -27 -6 -45 -8 -9 -31 -16 -50 -16 -33 0 -34 1 -34 40 0 40 0 40 40 40 29 0 42 -5 50 -19z"></path><path id="pVBoTiVOF" d="M9170 8575 l0 -105 68 2 67 2 -57 3 -58 4 0 39 0 39 53 4 52 3 -52 2 -53 2 0 45 0 45 50 0 c28 0 50 5 50 10 0 6 -27 10 -60 10 l-60 0 0 -105z"></path><path id="p7C4f6BuS" d="M9950 8575 c0 -63 4 -105 10 -105 6 0 10 42 10 105 0 63 -4 105 -10 105 -6 0 -10 -42 -10 -105z"></path><path id="pXjIzyhW0" d="M10175 8659 c4 -13 26 -62 49 -107 l42 -84 47 103 c26 56 45 104 43 107 -3 2 -13 -12 -22 -32 -17 -35 -20 -36 -70 -36 -48 0 -52 2 -64 30 -16 38 -35 52 -25 19z m125 -76 c-1 -5 -9 -23 -19 -42 l-18 -35 -17 32 c-23 45 -20 52 19 52 19 0 35 -3 35 -7z"></path><path id="p5mRGYxEB" d="M4460 7159 l0 -1160 288 3 c285 3 288 3 336 28 54 28 78 64 98 145 8 36 12 309 15 956 4 987 3 1007 -51 1090 -49 73 -178 99 -498 99 l-188 0 0 -1161z m485 1016 c18 -9 37 -27 44 -41 8 -18 11 -285 11 -970 0 -1035 2 -997 -59 -1028 -22 -12 -61 -16 -156 -16 l-125 0 0 1035 0 1035 126 0 c93 0 135 -4 159 -15z"></path><path id="pjKuNGUy9" d="M5360 8198 c9 -68 79 -590 156 -1160 l139 -1038 112 0 c72 0 113 4 113 10 0 6 63 518 140 1137 77 620 140 1137 140 1150 0 22 -2 23 -98 23 l-98 0 -23 -237 c-13 -131 -25 -253 -28 -270 l-6 -33 -153 0 c-140 0 -154 2 -155 18 0 9 -13 130 -27 267 l-28 250 -100 3 -101 3 17 -123z m527 -582 c4 -4 -127 -1149 -132 -1154 -3 -3 -5 1 -5 9 0 17 -117 1067 -125 1123 l-6 39 133 -7 c73 -4 134 -9 135 -10z"></path><path id="pCRzRn4iU" d="M6430 7225 l0 -1095 -110 0 -110 0 0 -65 0 -65 315 0 315 0 0 65 0 65 -105 0 -105 0 0 1095 0 1095 -100 0 -100 0 0 -1095z"></path><path id="p7L5GF3y5" d="M6895 8293 c8 -46 305 -2264 305 -2279 0 -11 24 -14 115 -14 102 0 115 2 115 17 0 9 63 524 140 1144 77 619 140 1134 140 1143 0 14 -14 16 -100 16 -89 0 -100 -2 -100 -17 0 -10 -11 -128 -25 -263 -14 -135 -25 -248 -25 -252 0 -5 -69 -8 -154 -8 l-155 0 -5 43 c-4 23 -15 130 -26 237 -11 107 -23 210 -26 228 l-5 32 -99 0 -99 0 4 -27z m542 -676 c0 -1 -28 -256 -63 -567 -35 -311 -64 -571 -64 -579 -1 -64 -18 70 -70 535 -33 296 -63 559 -66 583 l-7 44 134 -7 c74 -4 135 -8 136 -9z"></path><path id="pj5Txe3wo" d="M6585 4443 c-341 -591 -670 -1163 -732 -1269 l-112 -194 247 0 247 0 499 988 c275 543 502 991 506 995 5 5 218 -341 474 -768 257 -428 465 -779 463 -782 -3 -2 -355 -99 -783 -216 l-778 -212 517 -3 c284 -1 748 -1 1030 0 l514 3 -731 1267 c-402 697 -733 1267 -736 1267 -3 0 -284 -484 -625 -1076z"></path></g></g><g id="l7GM6KILpof4opwY3MhDJSF" fill="rgb(236,49,54)" style="transform: none;"><g style="transform: none;"><path id="p56JAcpl6" d="M8985 8337 c-66 -22 -99 -43 -144 -92 -50 -54 -87 -129 -101 -205 -6 -33 -10 -368 -10 -885 0 -517 4 -852 10 -885 22 -116 98 -228 184 -269 98 -48 225 -46 312 4 59 35 129 117 156 183 l23 57 3 875 c2 642 0 890 -8 930 -27 123 -100 225 -196 270 -59 27 -172 36 -229 17z m182 -181 c17 -19 37 -51 45 -73 17 -52 24 -1749 7 -1833 -22 -105 -115 -164 -195 -124 -102 51 -103 59 -103 1024 -1 476 3 823 9 864 21 142 65 192 160 181 35 -4 52 -13 77 -39z"></path><path id="poa9s9n14" d="M8066 8298 c-3 -13 -71 -525 -151 -1138 -80 -613 -148 -1125 -150 -1137 -5 -23 -4 -23 94 -23 l98 0 6 38 c3 20 51 417 107 882 56 465 104 853 108 863 4 10 52 -386 107 -880 l101 -898 97 -3 c69 -2 97 1 97 9 0 6 -63 524 -140 1150 -77 627 -140 1144 -140 1149 0 6 -46 10 -115 10 -111 0 -115 -1 -119 -22z"></path><path id="pT2IA8db2" d="M9546 8288 c4 -18 59 -285 124 -592 l116 -559 -113 -566 c-62 -311 -113 -569 -113 -574 0 -4 44 -6 97 -5 l97 3 82 400 c115 566 105 524 115 495 4 -14 47 -222 95 -462 l87 -438 99 0 c90 0 99 2 94 18 -3 9 -59 269 -125 578 l-120 560 130 570 c71 313 132 577 135 587 5 15 -4 17 -90 17 -53 0 -96 -2 -96 -4 0 -4 -206 -905 -216 -946 -6 -23 -7 -24 -14 -5 -4 11 -52 230 -106 487 l-99 468 -93 0 -94 0 8 -32z"></path><path id="pJixkB7CZ" d="M7199 4690 l-55 -109 354 -578 c194 -318 357 -582 362 -586 6 -7 197 37 208 48 3 2 -794 1314 -806 1327 -4 4 -32 -42 -63 -102z"></path><path id="p1HT8U4qIy" d="M8336 2640 c85 -148 154 -273 154 -277 0 -5 -43 -30 -95 -57 -52 -28 -93 -51 -92 -52 7 -8 612 -461 613 -460 1 0 -9 168 -22 371 -13 204 -23 373 -24 378 0 4 -40 -13 -90 -38 -49 -25 -91 -45 -94 -45 -2 0 -61 101 -131 225 l-127 225 -123 0 -124 0 155 -270z"></path></g></g></svg>