<svg class="img-fluid" id="outputsvg" xmlns="http://www.w3.org/2000/svg" style="transform: matrix(1.11388, 0, 0, 1.11388, -19.8764, 32.0863); transform-origin: 50% 50%; cursor: move; max-height: none; transition: transform 200ms ease-in-out 0s;" width="1484" height="1049" viewBox="0 0 14840 10490"><g id="l3hqKGaCWGKfEvX5FReTrII" fill="rgb(31,29,29)" style="transform: none;"><g style="transform: none;"><path id="pTIv7mXdA" d="M 6075 6248 c -632 -1095 -1165 -2017 -1183 -2050 l -33 -58 399 0 400 0 807 1598 c 444 878 811 1601 815 1605 4 5 344 -552 756 -1237 441 -736 744 -1250 738 -1255 -5 -5 -585 -166 -1288 -357 l -1280 -349 846 -3 c 466 -1 1229 -1 1696 0 l 850 3 -1182 2047 c -649 1126 -1183 2048 -1186 2048 -3 0 -522 -896 -1155 -1992 z "></path></g></g><g id="l4ybie6p6dhOFwKM86eWwuJ" fill="rgb(236,49,54)" style="transform: none;"><g style="transform: none;"><path id="pNTWrNcAm" d="M 7211 6910 l -92 -180 37 -63 c 99 -163 1116 -1822 1119 -1825 2 -2 77 16 167 41 116 31 163 48 162 58 -1 8 -294 494 -651 1081 l -650 1067 -92 -179 z "></path><path id="p1GpGbhSG1" d="M 8793 4037 c 2 -7 116 -208 251 -446 136 -238 246 -434 244 -435 -2 -2 -68 -37 -148 -80 -80 -43 -148 -80 -152 -84 -3 -4 215 -174 485 -378 459 -345 492 -368 495 -344 3 30 -66 1182 -72 1187 -2 2 -70 -29 -151 -69 -81 -40 -150 -68 -152 -63 -2 6 -95 170 -206 365 l -202 355 -199 3 c -159 2 -197 0 -193 -11 z "></path></g></g></svg>